HIERARCHY
ROOT Root
{
  OFFSET 0.0 0.0 0.0
  CHANNELS 6 Xposition Yposition Zposition Zrotation Yrotation Xrotation
  JOINT Hips
  {
    OFFSET 0.0 100.0 0.0
    CHANNELS 6 Xposition Yposition Zposition Zrotation Yrotation Xrotation
    JOINT Spine1
    {
      OFFSET 5.003913 -0.037094 -0.013727
      CHANNELS 3 Zrotation Yrotation Xrotation
      JOINT Spine2
      {
        OFFSET 7.125363 -1e-06 0.0
        CHANNELS 3 Zrotation Yrotation Xrotation
        JOINT Chest
        {
          OFFSET 7.594027 1e-06 0.0
          CHANNELS 3 Zrotation Yrotation Xrotation
          JOINT Neck1
          {
            OFFSET 26.313086 -0.460272 -0.181672
            CHANNELS 3 Zrotation Yrotation Xrotation
            JOINT Neck2
            {
              OFFSET 8.045911 0.0 0.0
              CHANNELS 3 Zrotation Yrotation Xrotation
              JOINT Head
              {
                OFFSET 6.432774 0.0 0.0
                CHANNELS 3 Zrotation Yrotation Xrotation
                JOINT HeadEnd
                {
                  OFFSET 16.169773 0.06451 0.00362
                  CHANNELS 3 Zrotation Yrotation Xrotation
                }
                JOINT Jaw
                {
                  OFFSET 0.108741 3.12938 0.002639
                  CHANNELS 3 Zrotation Yrotation Xrotation
                }
                JOINT LeftEye
                {
                  OFFSET 4.45173 8.166359 3.206392
                  CHANNELS 3 Zrotation Yrotation Xrotation
                }
                JOINT RightEye
                {
                  OFFSET 4.436895 8.135758 -3.222429
                  CHANNELS 3 Zrotation Yrotation Xrotation
                }
              }
            }
          }
          JOINT LeftShoulder
          {
            OFFSET 23.218927 5.195579 1.621656
            CHANNELS 3 Zrotation Yrotation Xrotation
            JOINT LeftArm
            {
              OFFSET 15.902118 2e-06 -2e-06
              CHANNELS 3 Zrotation Yrotation Xrotation
              JOINT LeftForeArm
              {
                OFFSET 28.739307 0.0 -1e-06
                CHANNELS 3 Zrotation Yrotation Xrotation
                JOINT LeftHand
                {
                  OFFSET 27.093981 -4e-06 0.0
                  CHANNELS 3 Zrotation Yrotation Xrotation
                  JOINT LeftHandThumb1
                  {
                    OFFSET 2.276781 3.380274 0.83384
                    CHANNELS 3 Zrotation Yrotation Xrotation
                    JOINT LeftHandThumb2
                    {
                      OFFSET 4.705309 -1e-06 -1e-06
                      CHANNELS 3 Zrotation Yrotation Xrotation
                      JOINT LeftHandThumb3
                      {
                        OFFSET 2.798515 0.0 3e-06
                        CHANNELS 3 Zrotation Yrotation Xrotation
                        JOINT LeftHandThumbEnd
                        {
                          OFFSET 3.180793 4e-06 -4e-06
                          CHANNELS 3 Zrotation Yrotation Xrotation
                        }
                      }
                    }
                  }
                  JOINT LeftHandIndex1
                  {
                    OFFSET 3.247786 2.352677 0.137192
                    CHANNELS 3 Zrotation Yrotation Xrotation
                    JOINT LeftHandIndex2
                    {
                      OFFSET 6.367095 1e-06 0.0
                      CHANNELS 3 Zrotation Yrotation Xrotation
                      JOINT LeftHandIndex3
                      {
                        OFFSET 3.662364 0.0 0.0
                        CHANNELS 3 Zrotation Yrotation Xrotation
                        JOINT LeftHandIndex4
                        {
                          OFFSET 2.329242 4e-06 -4e-06
                          CHANNELS 3 Zrotation Yrotation Xrotation
                          JOINT LeftHandIndexEnd
                          {
                            OFFSET 2.767823 1e-06 0.0
                            CHANNELS 3 Zrotation Yrotation Xrotation
                          }
                        }
                      }
                    }
                  }
                  JOINT LeftHandMiddle1
                  {
                    OFFSET 3.163612 0.945023 -0.406112
                    CHANNELS 3 Zrotation Yrotation Xrotation
                    JOINT LeftHandMiddle2
                    {
                      OFFSET 6.276789 3e-06 0.0
                      CHANNELS 3 Zrotation Yrotation Xrotation
                      JOINT LeftHandMiddle3
                      {
                        OFFSET 4.35652 -1e-06 4e-06
                        CHANNELS 3 Zrotation Yrotation Xrotation
                        JOINT LeftHandMiddle4
                        {
                          OFFSET 2.996877 0.0 8e-06
                          CHANNELS 3 Zrotation Yrotation Xrotation
                          JOINT LeftHandMiddleEnd
                          {
                            OFFSET 2.323256 3e-06 -4e-06
                            CHANNELS 3 Zrotation Yrotation Xrotation
                          }
                        }
                      }
                    }
                  }
                  JOINT LeftHandRing1
                  {
                    OFFSET 2.882606 -0.309162 0.107445
                    CHANNELS 3 Zrotation Yrotation Xrotation
                    JOINT LeftHandRing2
                    {
                      OFFSET 6.033198 0.0 4e-06
                      CHANNELS 3 Zrotation Yrotation Xrotation
                      JOINT LeftHandRing3
                      {
                        OFFSET 4.350578 3e-06 0.0
                        CHANNELS 3 Zrotation Yrotation Xrotation
                        JOINT LeftHandRing4
                        {
                          OFFSET 2.651321 2e-06 -7e-06
                          CHANNELS 3 Zrotation Yrotation Xrotation
                          JOINT LeftHandRingEnd
                          {
                            OFFSET 1.937663 1e-06 -4e-06
                            CHANNELS 3 Zrotation Yrotation Xrotation
                          }
                        }
                      }
                    }
                  }
                  JOINT LeftHandPinky1
                  {
                    OFFSET 2.865315 -1.525436 0.575687
                    CHANNELS 3 Zrotation Yrotation Xrotation
                    JOINT LeftHandPinky2
                    {
                      OFFSET 5.54936 1e-06 -8e-06
                      CHANNELS 3 Zrotation Yrotation Xrotation
                      JOINT LeftHandPinky3
                      {
                        OFFSET 3.070974 0.0 -4e-06
                        CHANNELS 3 Zrotation Yrotation Xrotation
                        JOINT LeftHandPinky4
                        {
                          OFFSET 1.549672 1e-06 0.0
                          CHANNELS 3 Zrotation Yrotation Xrotation
                          JOINT LeftHandPinkyEnd
                          {
                            OFFSET 1.952123 0.0 0.0
                            CHANNELS 3 Zrotation Yrotation Xrotation
                          }
                        }
                      }
                    }
                  }
                }
              }
            }
          }
          JOINT RightShoulder
          {
            OFFSET 23.161716 5.296122 -1.380114
            CHANNELS 3 Zrotation Yrotation Xrotation
            JOINT RightArm
            {
              OFFSET -16.027195 -2e-06 1.1e-05
              CHANNELS 3 Zrotation Yrotation Xrotation
              JOINT RightForeArm
              {
                OFFSET -28.736639 4e-06 2e-06
                CHANNELS 3 Zrotation Yrotation Xrotation
                JOINT RightHand
                {
                  OFFSET -27.133619 6e-06 0.0
                  CHANNELS 3 Zrotation Yrotation Xrotation
                  JOINT RightHandThumb1
                  {
                    OFFSET -2.274328 -3.351035 -0.83067
                    CHANNELS 3 Zrotation Yrotation Xrotation
                    JOINT RightHandThumb2
                    {
                      OFFSET -4.703594 -3e-06 2e-06
                      CHANNELS 3 Zrotation Yrotation Xrotation
                      JOINT RightHandThumb3
                      {
                        OFFSET -2.794935 -4e-06 -3e-06
                        CHANNELS 3 Zrotation Yrotation Xrotation
                        JOINT RightHandThumbEnd
                        {
                          OFFSET -3.183852 4e-06 1e-06
                          CHANNELS 3 Zrotation Yrotation Xrotation
                        }
                      }
                    }
                  }
                  JOINT RightHandIndex1
                  {
                    OFFSET -3.253496 -2.33755 -0.127667
                    CHANNELS 3 Zrotation Yrotation Xrotation
                    JOINT RightHandIndex2
                    {
                      OFFSET -6.344434 0.0 0.0
                      CHANNELS 3 Zrotation Yrotation Xrotation
                      JOINT RightHandIndex3
                      {
                        OFFSET -3.654871 0.0 -8e-06
                        CHANNELS 3 Zrotation Yrotation Xrotation
                        JOINT RightHandIndex4
                        {
                          OFFSET -2.327586 -1e-06 0.0
                          CHANNELS 3 Zrotation Yrotation Xrotation
                          JOINT RightHandIndexEnd
                          {
                            OFFSET -2.770001 3e-06 8e-06
                            CHANNELS 3 Zrotation Yrotation Xrotation
                          }
                        }
                      }
                    }
                  }
                  JOINT RightHandMiddle1
                  {
                    OFFSET -3.168223 -0.944764 0.411762
                    CHANNELS 3 Zrotation Yrotation Xrotation
                    JOINT RightHandMiddle2
                    {
                      OFFSET -6.266691 -1e-06 -4e-06
                      CHANNELS 3 Zrotation Yrotation Xrotation
                      JOINT RightHandMiddle3
                      {
                        OFFSET -4.348901 0.0 0.0
                        CHANNELS 3 Zrotation Yrotation Xrotation
                        JOINT RightHandMiddle4
                        {
                          OFFSET -3.00024 2e-06 -4e-06
                          CHANNELS 3 Zrotation Yrotation Xrotation
                          JOINT RightHandMiddleEnd
                          {
                            OFFSET -2.321477 -4e-06 -4e-06
                            CHANNELS 3 Zrotation Yrotation Xrotation
                          }
                        }
                      }
                    }
                  }
                  JOINT RightHandRing1
                  {
                    OFFSET -2.885654 0.293261 -0.119232
                    CHANNELS 3 Zrotation Yrotation Xrotation
                    JOINT RightHandRing2
                    {
                      OFFSET -6.032835 -1e-06 -4e-06
                      CHANNELS 3 Zrotation Yrotation Xrotation
                      JOINT RightHandRing3
                      {
                        OFFSET -4.33881 0.0 -4e-06
                        CHANNELS 3 Zrotation Yrotation Xrotation
                        JOINT RightHandRing4
                        {
                          OFFSET -2.654903 -4e-06 -4e-06
                          CHANNELS 3 Zrotation Yrotation Xrotation
                          JOINT RightHandRingEnd
                          {
                            OFFSET -1.935122 0.0 4e-06
                            CHANNELS 3 Zrotation Yrotation Xrotation
                          }
                        }
                      }
                    }
                  }
                  JOINT RightHandPinky1
                  {
                    OFFSET -2.866241 1.503904 -0.60527
                    CHANNELS 3 Zrotation Yrotation Xrotation
                    JOINT RightHandPinky2
                    {
                      OFFSET -5.553177 -2e-06 0.0
                      CHANNELS 3 Zrotation Yrotation Xrotation
                      JOINT RightHandPinky3
                      {
                        OFFSET -3.062664 -1e-06 -4e-06
                        CHANNELS 3 Zrotation Yrotation Xrotation
                        JOINT RightHandPinky4
                        {
                          OFFSET -1.546529 2e-06 4e-06
                          CHANNELS 3 Zrotation Yrotation Xrotation
                          JOINT RightHandPinkyEnd
                          {
                            OFFSET -1.952341 0.0 -4e-06
                            CHANNELS 3 Zrotation Yrotation Xrotation
                          }
                        }
                      }
                    }
                  }
                }
              }
            }
          }
        }
      }
    }
    JOINT LeftLeg
    {
      OFFSET -8.443107 2.567604 10.043214
      CHANNELS 3 Zrotation Yrotation Xrotation
      JOINT LeftShin
      {
        OFFSET 43.229198 1e-06 -1e-06
        CHANNELS 3 Zrotation Yrotation Xrotation
        JOINT LeftFoot
        {
          OFFSET 42.298611 1e-06 1e-06
          CHANNELS 3 Zrotation Yrotation Xrotation
          JOINT LeftToeBase
          {
            OFFSET 14.165858 1e-06 0.0
            CHANNELS 3 Zrotation Yrotation Xrotation
            JOINT LeftToeEnd
            {
              OFFSET 6.7141 -0.234461 0.0
              CHANNELS 3 Zrotation Yrotation Xrotation
            }
          }
        }
      }
    }
    JOINT RightLeg
    {
      OFFSET -8.303923 2.592729 -10.047278
      CHANNELS 3 Zrotation Yrotation Xrotation
      JOINT RightShin
      {
        OFFSET -43.369682 0.0 1e-06
        CHANNELS 3 Zrotation Yrotation Xrotation
        JOINT RightFoot
        {
          OFFSET -42.260784 4e-06 2e-06
          CHANNELS 3 Zrotation Yrotation Xrotation
          JOINT RightToeBase
          {
            OFFSET -14.222245 -2e-06 -1e-06
            CHANNELS 3 Zrotation Yrotation Xrotation
            JOINT RightToeEnd
            {
              OFFSET -6.660062 0.232574 -2e-06
              CHANNELS 3 Zrotation Yrotation Xrotation
            }
          }
        }
      }
    }
  }
}
MOTION
Frames: 5
Frame Time: 0.03333333333333333
0.0 0.0 0.0 0.0 -0.0 0.0 -0.102629 98.89325 3.176712 90.594063 7.75214 89.962349 2.087857 0.603969 -0.097616 -10.065787 -0.636458 -0.206695 16.94412 -0.100887 -2.163594 19.037369 5.032767 2.489085 -2.468461 -0.641495 -0.49269 -31.439497 1.164118 -2.42896 5e-06 0.0 -0.0 0.063328 0.007392 0.095094 0.012496 0.033305 0.077694 -0.032982 -0.010515 0.114031 -122.916443 -75.12117 138.717194 33.887981 -61.39608 0.364563 30.5977 0.192783 0.142932 3.125365 -0.861473 14.180351 17.636639 -26.322739 52.411205 -19.466665 -14.395598 29.410389 -1e-06 -8.774822 -3e-06 15.786727 -18.156013 6.060449 -0.609777 -1.795654 -3.88933 -4.807089 -11.046813 -2.937848 6e-06 -20.976019 -1e-06 -5.01997 -25.033558 -4.031879 7e-06 1e-06 0.0 -10.634537 -5.686971 -3.565589 10.573279 -17.922955 -3.113901 5e-06 -13.821211 -0.0 -0.501771 -31.181511 -4.027014 -11.225224 -59.351456 7.056793 -13.982718 -7.150197 -2.875041 13.772732 -8.401495 -3.218243 0.347739 -34.211559 0.771654 -0.963026 -17.733372 2.621022 -1e-06 -0.0 1e-06 -17.346416 -20.095217 -4.201783 21.757559 -1.638379 3.866428 3e-06 -6.338823 0.0 -1.697588 -22.591745 -6.194005 -1e-06 -3e-06 -1e-06 32.844936 -67.148445 168.221313 42.733932 -49.388153 -3.589903 29.198984 -0.213732 0.038747 -0.146869 -3.549199 18.892555 22.182117 -20.375898 49.933319 -16.701815 -16.743528 28.476534 -4e-06 -12.690601 -1e-06 16.154835 -18.022615 2.698483 -0.105921 -1.513857 -4.275885 -5.039041 -5.612872 -2.953557 4e-06 -11.020523 -0.0 -6.111297 -15.895329 -3.840472 1e-06 -0.0 2e-06 -10.283367 -5.680287 -4.341839 11.028294 -11.302403 -2.372634 -1.384267 -14.238579 -6.320124 -0.625436 -26.924187 -3.8276 -4.63186 -50.177837 -3.599933 -13.708526 -7.363475 -3.720939 18.141151 -14.052739 -3.242675 8e-06 -18.78727 -1e-06 -0.429713 -8.456043 2.555505 1e-06 -1e-06 -1e-06 -15.923531 -20.094479 -5.473587 30.41921 -7.190827 1.735923 6e-06 -8.162928 -2e-06 -1.861899 -22.861467 -6.16794 -1e-06 -2e-06 0.0 -166.521759 -5.076021 -17.658785 8.657391 0.010212 0.237071 -81.585091 6.380159 -6.659357 -4.097507 1.43778 2.17334 -0.999998 0.0 0.0 8.007649 -4.483908 -3.036716 15.860232 -0.067736 0.069477 -85.314293 7.926893 -4.68784 -4.423594 0.700811 1.698303 -1.000003 -0.0 0.0 
0.0 0.0 0.0 0.0 -0.0 0.0 -0.039957 98.940216 3.086182 90.595703 7.533519 89.99649 2.139498 0.585606 -0.094002 -10.042991 -0.618554 -0.162633 16.885656 -0.106338 -2.215889 18.855547 5.032191 2.477939 -2.435502 -0.610022 -0.549802 -31.567766 1.099724 -2.497935 6e-06 0.0 0.0 0.060641 0.010375 0.123685 0.043727 0.033414 0.109806 0.001069 -0.005011 0.138533 -122.606133 -75.278442 138.353821 34.205509 -61.44825 -0.052561 30.649467 0.115904 0.07349 3.103308 -1.086557 14.373358 17.636627 -26.322737 52.411201 -19.466665 -14.395597 29.410395 -1e-06 -8.774822 -2e-06 15.77811 -18.097883 6.034579 -0.609776 -1.795653 -3.889329 -4.807088 -11.046811 -2.937849 6e-06 -20.976019 -2e-06 -5.01997 -25.03356 -4.031881 7e-06 1e-06 -2e-06 -10.634535 -5.686971 -3.565588 10.573276 -17.922955 -3.113902 3e-06 -13.821213 -2e-06 -0.501774 -31.181511 -4.027017 -11.199189 -59.324894 7.153432 -13.982714 -7.150198 -2.875042 13.772733 -8.401495 -3.218241 0.347739 -34.211559 0.771653 -0.963027 -17.733376 2.621021 -1e-06 -1e-06 -1e-06 -17.346418 -20.095221 -4.201782 21.757561 -1.638376 3.866426 2e-06 -6.338824 0.0 -1.697589 -22.591747 -6.194006 -2e-06 -4e-06 -3e-06 32.581886 -67.073769 168.594864 42.619587 -49.213367 -3.948063 29.153303 -0.266892 0.020369 -0.009992 -3.488631 18.618145 22.182114 -20.375896 49.933327 -16.701811 -16.74353 28.476534 -3e-06 -12.690601 -2e-06 16.142303 -18.00737 2.69412 -0.10592 -1.513856 -4.275886 -5.039042 -5.612871 -2.953557 5e-06 -11.020521 -1e-06 -6.1113 -15.895328 -3.84047 -0.0 -1e-06 3e-06 -10.283372 -5.680289 -4.341842 11.028294 -11.302404 -2.372635 -1.384268 -14.23858 -6.320122 -0.625439 -26.924187 -3.827599 -4.632305 -50.210335 -3.586492 -13.708526 -7.363476 -3.720939 18.14115 -14.052737 -3.242677 4e-06 -18.787268 -1e-06 -0.429711 -8.456045 2.555501 1e-06 -2e-06 0.0 -15.923536 -20.094482 -5.47359 30.41921 -7.190826 1.735927 2e-06 -8.162927 -3e-06 -1.861903 -22.861467 -6.16794 1e-06 -4e-06 0.0 -166.994705 -5.115666 -17.426489 9.113691 0.015244 0.28215 -81.584145 6.148906 -6.638532 -4.086599 1.436766 2.178566 -0.999999 -0.0 0.0 7.812922 -4.524461 -3.110041 15.655125 -0.064769 0.073898 -85.129158 7.853896 -4.76463 -4.398139 0.670878 1.694157 -1.000004 -0.0 0.0 
0.0 0.0 0.0 0.0 -0.0 0.0 0.027733 98.953835 2.938118 90.640739 7.301996 90.053673 2.231957 0.531985 -0.085259 -10.00737 -0.621958 -0.136371 16.883432 -0.123347 -2.228866 18.639334 5.038572 2.474683 -2.443816 -0.598743 -0.650269 -31.687805 1.013387 -2.613302 6e-06 0.0 0.0 0.059097 0.010555 0.132353 0.049532 0.027544 0.121971 0.012341 0.000487 0.143211 -122.348404 -75.452034 138.014984 34.516636 -61.440025 -0.382614 30.799759 0.062326 0.014964 3.004281 -1.268024 14.408696 17.636625 -26.322729 52.411186 -19.466663 -14.395596 29.410389 0.0 -8.774821 -2e-06 15.782935 -18.111343 6.028615 -0.609776 -1.795653 -3.889327 -4.807089 -11.046813 -2.937849 4e-06 -20.976021 -3e-06 -5.019973 -25.033562 -4.031876 6e-06 2e-06 -1e-06 -10.634535 -5.686973 -3.565585 10.573274 -17.922955 -3.113899 2e-06 -13.82121 -2e-06 -0.501776 -31.181511 -4.02702 -11.273033 -59.321697 7.209048 -13.982714 -7.150199 -2.875039 13.77273 -8.401493 -3.218243 0.347732 -34.211559 0.771649 -0.963029 -17.733372 2.621018 -3e-06 -1e-06 1e-06 -17.346424 -20.095224 -4.20178 21.757559 -1.638373 3.866428 0.0 -6.338825 -0.0 -1.697593 -22.591749 -6.194007 -1e-06 -4e-06 -1e-06 32.219765 -67.077141 168.983246 42.584476 -49.09832 -4.321841 29.119518 -0.275679 0.007929 0.084273 -3.291643 18.401789 22.182121 -20.375898 49.933327 -16.701817 -16.74353 28.476532 -2e-06 -12.690603 -5e-06 16.151829 -17.963491 2.686046 -0.10592 -1.513856 -4.275881 -5.039043 -5.612873 -2.953554 3e-06 -11.020525 -1e-06 -6.1113 -15.895334 -3.840475 -1e-06 -1e-06 2e-06 -10.283375 -5.68029 -4.341841 11.028296 -11.302408 -2.372632 -1.384268 -14.238584 -6.320124 -0.625439 -26.924194 -3.827601 -4.614658 -50.200409 -3.604475 -13.708527 -7.363478 -3.720938 18.141153 -14.052742 -3.242676 4e-06 -18.787271 -1e-06 -0.429711 -8.456044 2.555506 1e-06 -2e-06 0.0 -15.923539 -20.09449 -5.473587 30.419218 -7.190825 1.735929 4e-06 -8.162928 -3e-06 -1.861904 -22.861471 -6.167942 2e-06 -3e-06 0.0 -167.584503 -5.131867 -17.175182 9.711079 0.015707 0.302693 -81.731361 5.931688 -6.558343 -4.080472 1.435571 2.183237 -1.0 1e-06 -0.0 7.34621 -4.635909 -3.229415 15.911503 -0.058299 0.074579 -85.142647 7.8084 -4.873005 -4.344903 0.655444 1.689558 -1.000002 -0.0 -0.0 
0.0 0.0 0.0 0.0 -0.0 0.0 0.070644 98.9561 2.736571 90.710556 7.008107 90.132248 2.391021 0.440909 -0.06775 -9.958924 -0.625215 -0.104961 16.900406 -0.160407 -2.195809 18.353662 5.04611 2.459166 -2.44938 -0.606599 -0.737349 -31.916248 0.957188 -2.758591 5e-06 0.0 0.0 0.058448 0.010291 0.128648 0.043041 0.023281 0.119601 0.01132 0.003462 0.137747 -122.154327 -75.649704 137.710709 34.923729 -61.36277 -0.668068 31.036982 0.048581 -0.008128 2.931846 -1.27482 14.369236 17.636629 -26.322735 52.411194 -19.46666 -14.395597 29.410395 -0.0 -8.774821 -3e-06 15.75709 -18.103334 6.038575 -0.609775 -1.795653 -3.88933 -4.807089 -11.046811 -2.937847 4e-06 -20.976019 -1e-06 -5.019968 -25.03356 -4.03188 5e-06 1e-06 -0.0 -10.634533 -5.686969 -3.565589 10.573275 -17.922951 -3.113901 3e-06 -13.821208 -3e-06 -0.501776 -31.181505 -4.027016 -11.317044 -59.310421 7.227553 -13.982712 -7.150197 -2.875043 13.772729 -8.401491 -3.218243 0.347733 -34.211544 0.771655 -0.96303 -17.73337 2.62102 -1e-06 -1e-06 -0.0 -17.346416 -20.095217 -4.201784 21.757557 -1.638374 3.866428 1e-06 -6.338823 0.0 -1.697589 -22.591745 -6.194005 -1e-06 -3e-06 -1e-06 31.84129 -67.191467 169.346924 42.757069 -49.051773 -4.770633 29.101559 -0.219062 0.018186 0.165553 -3.018992 18.238949 22.182114 -20.375898 49.933327 -16.701817 -16.74353 28.476536 -3e-06 -12.690601 -3e-06 16.150393 -17.908911 2.688743 -0.105919 -1.513858 -4.275881 -5.039042 -5.612874 -2.953557 5e-06 -11.020525 -2e-06 -6.111297 -15.895334 -3.840472 -1e-06 -1e-06 3e-06 -10.28337 -5.680288 -4.341839 11.028295 -11.302406 -2.372636 -1.384267 -14.238585 -6.320123 -0.625438 -26.924191 -3.827599 -4.613316 -50.145599 -3.602047 -13.708525 -7.363475 -3.720938 18.141153 -14.052739 -3.242682 6e-06 -18.78727 -1e-06 -0.429711 -8.456043 2.555507 0.0 -2e-06 -1e-06 -15.923536 -20.094484 -5.473584 30.419214 -7.190826 1.735924 2e-06 -8.162925 -4e-06 -1.861902 -22.861471 -6.167943 1e-06 -3e-06 -1e-06 -168.362778 -5.154094 -16.918819 10.467695 0.013948 0.306976 -81.948792 5.7316 -6.491649 -4.124803 1.435873 2.183268 -1.0 0.0 0.0 6.655146 -4.772125 -3.414209 16.424461 -0.055063 0.074001 -85.244736 7.782601 -4.971187 -4.302598 0.643881 1.684951 -1.000001 0.0 -0.0 
0.0 0.0 0.0 0.0 -0.0 0.0 0.104262 98.955093 2.46621 90.778503 6.608867 90.265572 2.606724 0.329851 -0.03547 -9.893836 -0.627886 -0.07304 16.925571 -0.215864 -2.156106 17.946491 5.080917 2.443483 -2.444865 -0.622133 -0.808665 -32.278065 0.920721 -2.925037 7e-06 0.0 0.0 0.058304 0.012189 0.126014 0.041055 0.024677 0.117163 0.011859 0.005373 0.134469 -121.858772 -75.902016 137.301987 35.590492 -61.257046 -1.191551 31.317814 0.045335 0.00403 2.926759 -1.158678 14.3837 17.636625 -26.322725 52.411182 -19.466661 -14.395596 29.410381 -1e-06 -8.774821 -2e-06 15.690203 -18.067617 6.06928 -0.609777 -1.795654 -3.88933 -4.807088 -11.04681 -2.937848 5e-06 -20.976015 -2e-06 -5.019969 -25.033556 -4.031878 6e-06 1e-06 -0.0 -10.634531 -5.686969 -3.565587 10.573272 -17.922947 -3.1139 3e-06 -13.821205 -1e-06 -0.501776 -31.181498 -4.027015 -11.300566 -59.274193 7.233981 -13.982712 -7.150197 -2.875042 13.77273 -8.401491 -3.218243 0.347738 -34.211552 0.771649 -0.963028 -17.733368 2.62102 -1e-06 -1e-06 1e-06 -17.346416 -20.095217 -4.20178 21.757555 -1.638375 3.866425 1e-06 -6.338823 0.0 -1.69759 -22.591743 -6.194005 2e-06 -3e-06 -4e-06 31.416853 -67.403496 169.735184 43.180927 -49.040131 -5.430514 29.053152 -0.160586 0.039863 0.230703 -2.677834 18.113314 22.182119 -20.375895 49.933319 -16.701817 -16.74353 28.476532 -3e-06 -12.690603 -3e-06 16.129065 -17.862465 2.703961 -0.105919 -1.513856 -4.275883 -5.039042 -5.612873 -2.953556 4e-06 -11.020525 -0.0 -6.111298 -15.895334 -3.840472 -0.0 -1e-06 3e-06 -10.283371 -5.680289 -4.34184 11.028296 -11.302406 -2.372631 -1.384269 -14.238581 -6.320122 -0.625438 -26.924194 -3.827599 -4.594132 -50.092892 -3.600505 -13.708526 -7.363479 -3.72094 18.14115 -14.052739 -3.242676 5e-06 -18.78727 -3e-06 -0.429713 -8.456043 2.555505 1e-06 -2e-06 -1e-06 -15.923536 -20.094482 -5.473588 30.41921 -7.190827 1.735929 4e-06 -8.162926 -2e-06 -1.861899 -22.861471 -6.167942 -1e-06 -2e-06 -1e-06 -169.417938 -5.221184 -16.626083 11.445615 0.00992 0.309921 -82.23851 5.56084 -6.409498 -4.169883 1.433733 2.179243 -0.999999 0.0 0.0 5.742712 -4.903092 -3.648213 17.082596 -0.056483 0.085713 -85.370949 7.75734 -5.059111 -4.260777 0.639827 1.68363 -1.000002 0.0 0.0 
